<svg id="visual" viewBox="0 0 900 600" width="900" height="600" xmlns="http://www.w3.org/2000/svg" xmlns:xlink="http://www.w3.org/1999/xlink" version="1.1"><rect x="0" y="0" width="900" height="600" fill="#002233"></rect><path d="M213 0L219.3 11.2C225.7 22.3 238.3 44.7 250 66.8C261.7 89 272.3 111 257.7 133.2C243 155.3 203 177.7 210.5 200C218 222.3 273 244.7 277.2 266.8C281.3 289 234.7 311 210 333.2C185.3 355.3 182.7 377.7 195.2 400C207.7 422.3 235.3 444.7 252 466.8C268.7 489 274.3 511 251 533.2C227.7 555.3 175.3 577.7 149.2 588.8L123 600L0 600L0 588.8C0 577.7 0 555.3 0 533.2C0 511 0 489 0 466.8C0 444.7 0 422.3 0 400C0 377.7 0 355.3 0 333.2C0 311 0 289 0 266.8C0 244.7 0 222.3 0 200C0 177.7 0 155.3 0 133.2C0 111 0 89 0 66.8C0 44.7 0 22.3 0 11.2L0 0Z" fill="#fcfb3d" stroke-linecap="round" stroke-linejoin="miter"></path></svg>